<?xml version="1.0" standalone="no"?>
<svg xmlns="http://www.w3.org/2000/svg" width="1000" height="1600" viewBox="0 0 1000 1600"><defs><linearGradient id="frame-background-color" gradientUnits="userSpaceOnUse" x1="500" y1="0" x2="500" y2="1600"><stop offset="0%" stop-color="#ffffff"/><stop offset="100%" stop-color="#40d0e2"/></linearGradient><clipPath id="clip-path-dot-color"><rect x="152" y="555" width="24" height="24" transform="rotate(0,164,567)"/><rect x="152" y="627" width="24" height="24" transform="rotate(0,164,639)"/><rect x="152" y="699" width="24" height="24" transform="rotate(0,164,711)"/><rect x="152" y="723" width="24" height="24" transform="rotate(0,164,735)"/><rect x="152" y="747" width="24" height="24" transform="rotate(0,164,759)"/><rect x="152" y="795" width="24" height="24" transform="rotate(0,164,807)"/><rect x="176" y="579" width="24" height="24" transform="rotate(0,188,591)"/><rect x="176" y="603" width="24" height="24" transform="rotate(0,188,615)"/><rect x="176" y="627" width="24" height="24" transform="rotate(0,188,639)"/><rect x="176" y="651" width="24" height="24" transform="rotate(0,188,663)"/><rect x="176" y="699" width="24" height="24" transform="rotate(0,188,711)"/><rect x="176" y="771" width="24" height="24" transform="rotate(0,188,783)"/><rect x="176" y="819" width="24" height="24" transform="rotate(0,188,831)"/><rect x="176" y="843" width="24" height="24" transform="rotate(0,188,855)"/><rect x="200" y="555" width="24" height="24" transform="rotate(0,212,567)"/><rect x="200" y="603" width="24" height="24" transform="rotate(0,212,615)"/><rect x="200" y="675" width="24" height="24" transform="rotate(0,212,687)"/><rect x="200" y="747" width="24" height="24" transform="rotate(0,212,759)"/><rect x="200" y="819" width="24" height="24" transform="rotate(0,212,831)"/><rect x="224" y="555" width="24" height="24" transform="rotate(0,236,567)"/><rect x="224" y="579" width="24" height="24" transform="rotate(0,236,591)"/><rect x="224" y="651" width="24" height="24" transform="rotate(0,236,663)"/><rect x="224" y="795" width="24" height="24" transform="rotate(0,236,807)"/><rect x="248" y="555" width="24" height="24" transform="rotate(0,260,567)"/><rect x="248" y="579" width="24" height="24" transform="rotate(0,260,591)"/><rect x="248" y="627" width="24" height="24" transform="rotate(0,260,639)"/><rect x="248" y="651" width="24" height="24" transform="rotate(0,260,663)"/><rect x="248" y="699" width="24" height="24" transform="rotate(0,260,711)"/><rect x="248" y="771" width="24" height="24" transform="rotate(0,260,783)"/><rect x="248" y="795" width="24" height="24" transform="rotate(0,260,807)"/><rect x="248" y="843" width="24" height="24" transform="rotate(0,260,855)"/><rect x="272" y="579" width="24" height="24" transform="rotate(0,284,591)"/><rect x="272" y="675" width="24" height="24" transform="rotate(0,284,687)"/><rect x="272" y="699" width="24" height="24" transform="rotate(0,284,711)"/><rect x="272" y="723" width="24" height="24" transform="rotate(0,284,735)"/><rect x="272" y="747" width="24" height="24" transform="rotate(0,284,759)"/><rect x="272" y="819" width="24" height="24" transform="rotate(0,284,831)"/><rect x="296" y="555" width="24" height="24" transform="rotate(0,308,567)"/><rect x="296" y="603" width="24" height="24" transform="rotate(0,308,615)"/><rect x="296" y="651" width="24" height="24" transform="rotate(0,308,663)"/><rect x="296" y="699" width="24" height="24" transform="rotate(0,308,711)"/><rect x="296" y="747" width="24" height="24" transform="rotate(0,308,759)"/><rect x="296" y="795" width="24" height="24" transform="rotate(0,308,807)"/><rect x="296" y="843" width="24" height="24" transform="rotate(0,308,855)"/><rect x="320" y="579" width="24" height="24" transform="rotate(0,332,591)"/><rect x="320" y="627" width="24" height="24" transform="rotate(0,332,639)"/><rect x="320" y="699" width="24" height="24" transform="rotate(0,332,711)"/><rect x="320" y="723" width="24" height="24" transform="rotate(0,332,735)"/><rect x="320" y="771" width="24" height="24" transform="rotate(0,332,783)"/><rect x="320" y="843" width="24" height="24" transform="rotate(0,332,855)"/><rect x="344" y="363" width="24" height="24" transform="rotate(0,356,375)"/><rect x="344" y="387" width="24" height="24" transform="rotate(0,356,399)"/><rect x="344" y="411" width="24" height="24" transform="rotate(0,356,423)"/><rect x="344" y="435" width="24" height="24" transform="rotate(0,356,447)"/><rect x="344" y="507" width="24" height="24" transform="rotate(0,356,519)"/><rect x="344" y="555" width="24" height="24" transform="rotate(0,356,567)"/><rect x="344" y="795" width="24" height="24" transform="rotate(0,356,807)"/><rect x="344" y="867" width="24" height="24" transform="rotate(0,356,879)"/><rect x="344" y="939" width="24" height="24" transform="rotate(0,356,951)"/><rect x="344" y="963" width="24" height="24" transform="rotate(0,356,975)"/><rect x="344" y="987" width="24" height="24" transform="rotate(0,356,999)"/><rect x="344" y="1035" width="24" height="24" transform="rotate(0,356,1047)"/><rect x="368" y="411" width="24" height="24" transform="rotate(0,380,423)"/><rect x="368" y="435" width="24" height="24" transform="rotate(0,380,447)"/><rect x="368" y="483" width="24" height="24" transform="rotate(0,380,495)"/><rect x="368" y="531" width="24" height="24" transform="rotate(0,380,543)"/><rect x="368" y="555" width="24" height="24" transform="rotate(0,380,567)"/><rect x="368" y="579" width="24" height="24" transform="rotate(0,380,591)"/><rect x="368" y="651" width="24" height="24" transform="rotate(0,380,663)"/><rect x="368" y="675" width="24" height="24" transform="rotate(0,380,687)"/><rect x="368" y="699" width="24" height="24" transform="rotate(0,380,711)"/><rect x="368" y="723" width="24" height="24" transform="rotate(0,380,735)"/><rect x="368" y="771" width="24" height="24" transform="rotate(0,380,783)"/><rect x="368" y="867" width="24" height="24" transform="rotate(0,380,879)"/><rect x="368" y="939" width="24" height="24" transform="rotate(0,380,951)"/><rect x="368" y="1011" width="24" height="24" transform="rotate(0,380,1023)"/><rect x="392" y="387" width="24" height="24" transform="rotate(0,404,399)"/><rect x="392" y="411" width="24" height="24" transform="rotate(0,404,423)"/><rect x="392" y="459" width="24" height="24" transform="rotate(0,404,471)"/><rect x="392" y="507" width="24" height="24" transform="rotate(0,404,519)"/><rect x="392" y="555" width="24" height="24" transform="rotate(0,404,567)"/><rect x="392" y="627" width="24" height="24" transform="rotate(0,404,639)"/><rect x="392" y="651" width="24" height="24" transform="rotate(0,404,663)"/><rect x="392" y="699" width="24" height="24" transform="rotate(0,404,711)"/><rect x="392" y="771" width="24" height="24" transform="rotate(0,404,783)"/><rect x="392" y="795" width="24" height="24" transform="rotate(0,404,807)"/><rect x="392" y="915" width="24" height="24" transform="rotate(0,404,927)"/><rect x="392" y="987" width="24" height="24" transform="rotate(0,404,999)"/><rect x="416" y="363" width="24" height="24" transform="rotate(0,428,375)"/><rect x="416" y="459" width="24" height="24" transform="rotate(0,428,471)"/><rect x="416" y="555" width="24" height="24" transform="rotate(0,428,567)"/><rect x="416" y="723" width="24" height="24" transform="rotate(0,428,735)"/><rect x="416" y="819" width="24" height="24" transform="rotate(0,428,831)"/><rect x="416" y="843" width="24" height="24" transform="rotate(0,428,855)"/><rect x="416" y="891" width="24" height="24" transform="rotate(0,428,903)"/><rect x="416" y="1035" width="24" height="24" transform="rotate(0,428,1047)"/><rect x="440" y="387" width="24" height="24" transform="rotate(0,452,399)"/><rect x="440" y="411" width="24" height="24" transform="rotate(0,452,423)"/><rect x="440" y="507" width="24" height="24" transform="rotate(0,452,519)"/><rect x="440" y="579" width="24" height="24" transform="rotate(0,452,591)"/><rect x="440" y="651" width="24" height="24" transform="rotate(0,452,663)"/><rect x="440" y="723" width="24" height="24" transform="rotate(0,452,735)"/><rect x="440" y="795" width="24" height="24" transform="rotate(0,452,807)"/><rect x="440" y="939" width="24" height="24" transform="rotate(0,452,951)"/><rect x="464" y="363" width="24" height="24" transform="rotate(0,476,375)"/><rect x="464" y="411" width="24" height="24" transform="rotate(0,476,423)"/><rect x="464" y="531" width="24" height="24" transform="rotate(0,476,543)"/><rect x="464" y="579" width="24" height="24" transform="rotate(0,476,591)"/><rect x="464" y="603" width="24" height="24" transform="rotate(0,476,615)"/><rect x="464" y="627" width="24" height="24" transform="rotate(0,476,639)"/><rect x="464" y="675" width="24" height="24" transform="rotate(0,476,687)"/><rect x="464" y="699" width="24" height="24" transform="rotate(0,476,711)"/><rect x="464" y="771" width="24" height="24" transform="rotate(0,476,783)"/><rect x="464" y="891" width="24" height="24" transform="rotate(0,476,903)"/><rect x="464" y="915" width="24" height="24" transform="rotate(0,476,927)"/><rect x="464" y="987" width="24" height="24" transform="rotate(0,476,999)"/><rect x="488" y="459" width="24" height="24" transform="rotate(0,500,471)"/><rect x="488" y="483" width="24" height="24" transform="rotate(0,500,495)"/><rect x="488" y="507" width="24" height="24" transform="rotate(0,500,519)"/><rect x="488" y="531" width="24" height="24" transform="rotate(0,500,543)"/><rect x="488" y="603" width="24" height="24" transform="rotate(0,500,615)"/><rect x="488" y="699" width="24" height="24" transform="rotate(0,500,711)"/><rect x="488" y="747" width="24" height="24" transform="rotate(0,500,759)"/><rect x="488" y="867" width="24" height="24" transform="rotate(0,500,879)"/><rect x="488" y="891" width="24" height="24" transform="rotate(0,500,903)"/><rect x="488" y="915" width="24" height="24" transform="rotate(0,500,927)"/><rect x="488" y="939" width="24" height="24" transform="rotate(0,500,951)"/><rect x="488" y="963" width="24" height="24" transform="rotate(0,500,975)"/><rect x="488" y="1035" width="24" height="24" transform="rotate(0,500,1047)"/><rect x="512" y="363" width="24" height="24" transform="rotate(0,524,375)"/><rect x="512" y="387" width="24" height="24" transform="rotate(0,524,399)"/><rect x="512" y="483" width="24" height="24" transform="rotate(0,524,495)"/><rect x="512" y="531" width="24" height="24" transform="rotate(0,524,543)"/><rect x="512" y="603" width="24" height="24" transform="rotate(0,524,615)"/><rect x="512" y="627" width="24" height="24" transform="rotate(0,524,639)"/><rect x="512" y="651" width="24" height="24" transform="rotate(0,524,663)"/><rect x="512" y="747" width="24" height="24" transform="rotate(0,524,759)"/><rect x="512" y="795" width="24" height="24" transform="rotate(0,524,807)"/><rect x="512" y="867" width="24" height="24" transform="rotate(0,524,879)"/><rect x="512" y="891" width="24" height="24" transform="rotate(0,524,903)"/><rect x="512" y="915" width="24" height="24" transform="rotate(0,524,927)"/><rect x="512" y="939" width="24" height="24" transform="rotate(0,524,951)"/><rect x="512" y="1011" width="24" height="24" transform="rotate(0,524,1023)"/><rect x="536" y="363" width="24" height="24" transform="rotate(0,548,375)"/><rect x="536" y="387" width="24" height="24" transform="rotate(0,548,399)"/><rect x="536" y="483" width="24" height="24" transform="rotate(0,548,495)"/><rect x="536" y="507" width="24" height="24" transform="rotate(0,548,519)"/><rect x="536" y="555" width="24" height="24" transform="rotate(0,548,567)"/><rect x="536" y="579" width="24" height="24" transform="rotate(0,548,591)"/><rect x="536" y="627" width="24" height="24" transform="rotate(0,548,639)"/><rect x="536" y="675" width="24" height="24" transform="rotate(0,548,687)"/><rect x="536" y="699" width="24" height="24" transform="rotate(0,548,711)"/><rect x="536" y="771" width="24" height="24" transform="rotate(0,548,783)"/><rect x="536" y="795" width="24" height="24" transform="rotate(0,548,807)"/><rect x="536" y="843" width="24" height="24" transform="rotate(0,548,855)"/><rect x="536" y="867" width="24" height="24" transform="rotate(0,548,879)"/><rect x="536" y="915" width="24" height="24" transform="rotate(0,548,927)"/><rect x="536" y="987" width="24" height="24" transform="rotate(0,548,999)"/><rect x="560" y="387" width="24" height="24" transform="rotate(0,572,399)"/><rect x="560" y="411" width="24" height="24" transform="rotate(0,572,423)"/><rect x="560" y="435" width="24" height="24" transform="rotate(0,572,447)"/><rect x="560" y="459" width="24" height="24" transform="rotate(0,572,471)"/><rect x="560" y="483" width="24" height="24" transform="rotate(0,572,495)"/><rect x="560" y="579" width="24" height="24" transform="rotate(0,572,591)"/><rect x="560" y="627" width="24" height="24" transform="rotate(0,572,639)"/><rect x="560" y="675" width="24" height="24" transform="rotate(0,572,687)"/><rect x="560" y="819" width="24" height="24" transform="rotate(0,572,831)"/><rect x="560" y="867" width="24" height="24" transform="rotate(0,572,879)"/><rect x="560" y="915" width="24" height="24" transform="rotate(0,572,927)"/><rect x="560" y="963" width="24" height="24" transform="rotate(0,572,975)"/><rect x="560" y="987" width="24" height="24" transform="rotate(0,572,999)"/><rect x="560" y="1035" width="24" height="24" transform="rotate(0,572,1047)"/><rect x="584" y="363" width="24" height="24" transform="rotate(0,596,375)"/><rect x="584" y="435" width="24" height="24" transform="rotate(0,596,447)"/><rect x="584" y="459" width="24" height="24" transform="rotate(0,596,471)"/><rect x="584" y="483" width="24" height="24" transform="rotate(0,596,495)"/><rect x="584" y="507" width="24" height="24" transform="rotate(0,596,519)"/><rect x="584" y="531" width="24" height="24" transform="rotate(0,596,543)"/><rect x="584" y="579" width="24" height="24" transform="rotate(0,596,591)"/><rect x="584" y="603" width="24" height="24" transform="rotate(0,596,615)"/><rect x="584" y="651" width="24" height="24" transform="rotate(0,596,663)"/><rect x="584" y="675" width="24" height="24" transform="rotate(0,596,687)"/><rect x="584" y="723" width="24" height="24" transform="rotate(0,596,735)"/><rect x="584" y="795" width="24" height="24" transform="rotate(0,596,807)"/><rect x="584" y="867" width="24" height="24" transform="rotate(0,596,879)"/><rect x="584" y="939" width="24" height="24" transform="rotate(0,596,951)"/><rect x="584" y="1011" width="24" height="24" transform="rotate(0,596,1023)"/><rect x="608" y="459" width="24" height="24" transform="rotate(0,620,471)"/><rect x="608" y="579" width="24" height="24" transform="rotate(0,620,591)"/><rect x="608" y="699" width="24" height="24" transform="rotate(0,620,711)"/><rect x="608" y="747" width="24" height="24" transform="rotate(0,620,759)"/><rect x="608" y="795" width="24" height="24" transform="rotate(0,620,807)"/><rect x="608" y="843" width="24" height="24" transform="rotate(0,620,855)"/><rect x="608" y="939" width="24" height="24" transform="rotate(0,620,951)"/><rect x="608" y="987" width="24" height="24" transform="rotate(0,620,999)"/><rect x="632" y="387" width="24" height="24" transform="rotate(0,644,399)"/><rect x="632" y="411" width="24" height="24" transform="rotate(0,644,423)"/><rect x="632" y="507" width="24" height="24" transform="rotate(0,644,519)"/><rect x="632" y="531" width="24" height="24" transform="rotate(0,644,543)"/><rect x="632" y="555" width="24" height="24" transform="rotate(0,644,567)"/><rect x="632" y="579" width="24" height="24" transform="rotate(0,644,591)"/><rect x="632" y="675" width="24" height="24" transform="rotate(0,644,687)"/><rect x="632" y="699" width="24" height="24" transform="rotate(0,644,711)"/><rect x="632" y="723" width="24" height="24" transform="rotate(0,644,735)"/><rect x="632" y="747" width="24" height="24" transform="rotate(0,644,759)"/><rect x="632" y="819" width="24" height="24" transform="rotate(0,644,831)"/><rect x="632" y="843" width="24" height="24" transform="rotate(0,644,855)"/><rect x="632" y="867" width="24" height="24" transform="rotate(0,644,879)"/><rect x="632" y="891" width="24" height="24" transform="rotate(0,644,903)"/><rect x="632" y="915" width="24" height="24" transform="rotate(0,644,927)"/><rect x="632" y="939" width="24" height="24" transform="rotate(0,644,951)"/><rect x="632" y="963" width="24" height="24" transform="rotate(0,644,975)"/><rect x="632" y="1035" width="24" height="24" transform="rotate(0,644,1047)"/><rect x="656" y="555" width="24" height="24" transform="rotate(0,668,567)"/><rect x="656" y="579" width="24" height="24" transform="rotate(0,668,591)"/><rect x="656" y="603" width="24" height="24" transform="rotate(0,668,615)"/><rect x="656" y="627" width="24" height="24" transform="rotate(0,668,639)"/><rect x="656" y="651" width="24" height="24" transform="rotate(0,668,663)"/><rect x="656" y="795" width="24" height="24" transform="rotate(0,668,807)"/><rect x="656" y="843" width="24" height="24" transform="rotate(0,668,855)"/><rect x="656" y="939" width="24" height="24" transform="rotate(0,668,951)"/><rect x="656" y="1011" width="24" height="24" transform="rotate(0,668,1023)"/><rect x="680" y="603" width="24" height="24" transform="rotate(0,692,615)"/><rect x="680" y="675" width="24" height="24" transform="rotate(0,692,687)"/><rect x="680" y="699" width="24" height="24" transform="rotate(0,692,711)"/><rect x="680" y="723" width="24" height="24" transform="rotate(0,692,735)"/><rect x="680" y="747" width="24" height="24" transform="rotate(0,692,759)"/><rect x="680" y="771" width="24" height="24" transform="rotate(0,692,783)"/><rect x="680" y="843" width="24" height="24" transform="rotate(0,692,855)"/><rect x="680" y="891" width="24" height="24" transform="rotate(0,692,903)"/><rect x="680" y="939" width="24" height="24" transform="rotate(0,692,951)"/><rect x="704" y="579" width="24" height="24" transform="rotate(0,716,591)"/><rect x="704" y="603" width="24" height="24" transform="rotate(0,716,615)"/><rect x="704" y="627" width="24" height="24" transform="rotate(0,716,639)"/><rect x="704" y="699" width="24" height="24" transform="rotate(0,716,711)"/><rect x="704" y="819" width="24" height="24" transform="rotate(0,716,831)"/><rect x="704" y="843" width="24" height="24" transform="rotate(0,716,855)"/><rect x="704" y="939" width="24" height="24" transform="rotate(0,716,951)"/><rect x="704" y="963" width="24" height="24" transform="rotate(0,716,975)"/><rect x="704" y="1011" width="24" height="24" transform="rotate(0,716,1023)"/><rect x="704" y="1035" width="24" height="24" transform="rotate(0,716,1047)"/><rect x="728" y="603" width="24" height="24" transform="rotate(0,740,615)"/><rect x="728" y="675" width="24" height="24" transform="rotate(0,740,687)"/><rect x="728" y="723" width="24" height="24" transform="rotate(0,740,735)"/><rect x="728" y="795" width="24" height="24" transform="rotate(0,740,807)"/><rect x="728" y="843" width="24" height="24" transform="rotate(0,740,855)"/><rect x="728" y="867" width="24" height="24" transform="rotate(0,740,879)"/><rect x="728" y="891" width="24" height="24" transform="rotate(0,740,903)"/><rect x="728" y="915" width="24" height="24" transform="rotate(0,740,927)"/><rect x="728" y="939" width="24" height="24" transform="rotate(0,740,951)"/><rect x="752" y="555" width="24" height="24" transform="rotate(0,764,567)"/><rect x="752" y="579" width="24" height="24" transform="rotate(0,764,591)"/><rect x="752" y="603" width="24" height="24" transform="rotate(0,764,615)"/><rect x="752" y="627" width="24" height="24" transform="rotate(0,764,639)"/><rect x="752" y="651" width="24" height="24" transform="rotate(0,764,663)"/><rect x="752" y="699" width="24" height="24" transform="rotate(0,764,711)"/><rect x="752" y="771" width="24" height="24" transform="rotate(0,764,783)"/><rect x="752" y="843" width="24" height="24" transform="rotate(0,764,855)"/><rect x="752" y="891" width="24" height="24" transform="rotate(0,764,903)"/><rect x="752" y="915" width="24" height="24" transform="rotate(0,764,927)"/><rect x="752" y="963" width="24" height="24" transform="rotate(0,764,975)"/><rect x="752" y="987" width="24" height="24" transform="rotate(0,764,999)"/><rect x="752" y="1035" width="24" height="24" transform="rotate(0,764,1047)"/><rect x="776" y="555" width="24" height="24" transform="rotate(0,788,567)"/><rect x="776" y="579" width="24" height="24" transform="rotate(0,788,591)"/><rect x="776" y="651" width="24" height="24" transform="rotate(0,788,663)"/><rect x="776" y="675" width="24" height="24" transform="rotate(0,788,687)"/><rect x="776" y="699" width="24" height="24" transform="rotate(0,788,711)"/><rect x="776" y="723" width="24" height="24" transform="rotate(0,788,735)"/><rect x="776" y="747" width="24" height="24" transform="rotate(0,788,759)"/><rect x="776" y="819" width="24" height="24" transform="rotate(0,788,831)"/><rect x="776" y="891" width="24" height="24" transform="rotate(0,788,903)"/><rect x="776" y="939" width="24" height="24" transform="rotate(0,788,951)"/><rect x="776" y="1035" width="24" height="24" transform="rotate(0,788,1047)"/><rect x="800" y="555" width="24" height="24" transform="rotate(0,812,567)"/><rect x="800" y="603" width="24" height="24" transform="rotate(0,812,615)"/><rect x="800" y="651" width="24" height="24" transform="rotate(0,812,663)"/><rect x="800" y="795" width="24" height="24" transform="rotate(0,812,807)"/><rect x="800" y="867" width="24" height="24" transform="rotate(0,812,879)"/><rect x="800" y="915" width="24" height="24" transform="rotate(0,812,927)"/><rect x="800" y="939" width="24" height="24" transform="rotate(0,812,951)"/><rect x="800" y="963" width="24" height="24" transform="rotate(0,812,975)"/><rect x="800" y="987" width="24" height="24" transform="rotate(0,812,999)"/><rect x="800" y="1011" width="24" height="24" transform="rotate(0,812,1023)"/><rect x="800" y="1035" width="24" height="24" transform="rotate(0,812,1047)"/><rect x="824" y="555" width="24" height="24" transform="rotate(0,836,567)"/><rect x="824" y="579" width="24" height="24" transform="rotate(0,836,591)"/><rect x="824" y="627" width="24" height="24" transform="rotate(0,836,639)"/><rect x="824" y="699" width="24" height="24" transform="rotate(0,836,711)"/><rect x="824" y="843" width="24" height="24" transform="rotate(0,836,855)"/><rect x="824" y="915" width="24" height="24" transform="rotate(0,836,927)"/></clipPath><clipPath id="clip-path-corners-square-color-0-0"><rect x="152" y="363" width="24" height="24" transform="rotate(0,164,375)"/><rect x="152" y="387" width="24" height="24" transform="rotate(0,164,399)"/><rect x="152" y="411" width="24" height="24" transform="rotate(0,164,423)"/><rect x="152" y="435" width="24" height="24" transform="rotate(0,164,447)"/><rect x="152" y="459" width="24" height="24" transform="rotate(0,164,471)"/><rect x="152" y="483" width="24" height="24" transform="rotate(0,164,495)"/><rect x="152" y="507" width="24" height="24" transform="rotate(0,164,519)"/><rect x="176" y="363" width="24" height="24" transform="rotate(0,188,375)"/><rect x="176" y="507" width="24" height="24" transform="rotate(0,188,519)"/><rect x="200" y="363" width="24" height="24" transform="rotate(0,212,375)"/><rect x="200" y="507" width="24" height="24" transform="rotate(0,212,519)"/><rect x="224" y="363" width="24" height="24" transform="rotate(0,236,375)"/><rect x="224" y="507" width="24" height="24" transform="rotate(0,236,519)"/><rect x="248" y="363" width="24" height="24" transform="rotate(0,260,375)"/><rect x="248" y="507" width="24" height="24" transform="rotate(0,260,519)"/><rect x="272" y="363" width="24" height="24" transform="rotate(0,284,375)"/><rect x="272" y="507" width="24" height="24" transform="rotate(0,284,519)"/><rect x="296" y="363" width="24" height="24" transform="rotate(0,308,375)"/><rect x="296" y="387" width="24" height="24" transform="rotate(0,308,399)"/><rect x="296" y="411" width="24" height="24" transform="rotate(0,308,423)"/><rect x="296" y="435" width="24" height="24" transform="rotate(0,308,447)"/><rect x="296" y="459" width="24" height="24" transform="rotate(0,308,471)"/><rect x="296" y="483" width="24" height="24" transform="rotate(0,308,495)"/><rect x="296" y="507" width="24" height="24" transform="rotate(0,308,519)"/></clipPath><clipPath id="clip-path-corners-dot-color-0-0"><rect x="200" y="411" width="24" height="24" transform="rotate(0,212,423)"/><rect x="200" y="435" width="24" height="24" transform="rotate(0,212,447)"/><rect x="200" y="459" width="24" height="24" transform="rotate(0,212,471)"/><rect x="224" y="411" width="24" height="24" transform="rotate(0,236,423)"/><rect x="224" y="435" width="24" height="24" transform="rotate(0,236,447)"/><rect x="224" y="459" width="24" height="24" transform="rotate(0,236,471)"/><rect x="248" y="411" width="24" height="24" transform="rotate(0,260,423)"/><rect x="248" y="435" width="24" height="24" transform="rotate(0,260,447)"/><rect x="248" y="459" width="24" height="24" transform="rotate(0,260,471)"/></clipPath><clipPath id="clip-path-corners-square-color-1-0"><rect x="680" y="363" width="24" height="24" transform="rotate(0,692,375)"/><rect x="680" y="387" width="24" height="24" transform="rotate(0,692,399)"/><rect x="680" y="411" width="24" height="24" transform="rotate(0,692,423)"/><rect x="680" y="435" width="24" height="24" transform="rotate(0,692,447)"/><rect x="680" y="459" width="24" height="24" transform="rotate(0,692,471)"/><rect x="680" y="483" width="24" height="24" transform="rotate(0,692,495)"/><rect x="680" y="507" width="24" height="24" transform="rotate(0,692,519)"/><rect x="704" y="363" width="24" height="24" transform="rotate(0,716,375)"/><rect x="704" y="507" width="24" height="24" transform="rotate(0,716,519)"/><rect x="728" y="363" width="24" height="24" transform="rotate(0,740,375)"/><rect x="728" y="507" width="24" height="24" transform="rotate(0,740,519)"/><rect x="752" y="363" width="24" height="24" transform="rotate(0,764,375)"/><rect x="752" y="507" width="24" height="24" transform="rotate(0,764,519)"/><rect x="776" y="363" width="24" height="24" transform="rotate(0,788,375)"/><rect x="776" y="507" width="24" height="24" transform="rotate(0,788,519)"/><rect x="800" y="363" width="24" height="24" transform="rotate(0,812,375)"/><rect x="800" y="507" width="24" height="24" transform="rotate(0,812,519)"/><rect x="824" y="363" width="24" height="24" transform="rotate(0,836,375)"/><rect x="824" y="387" width="24" height="24" transform="rotate(0,836,399)"/><rect x="824" y="411" width="24" height="24" transform="rotate(0,836,423)"/><rect x="824" y="435" width="24" height="24" transform="rotate(0,836,447)"/><rect x="824" y="459" width="24" height="24" transform="rotate(0,836,471)"/><rect x="824" y="483" width="24" height="24" transform="rotate(0,836,495)"/><rect x="824" y="507" width="24" height="24" transform="rotate(0,836,519)"/></clipPath><clipPath id="clip-path-corners-dot-color-1-0"><rect x="728" y="411" width="24" height="24" transform="rotate(0,740,423)"/><rect x="728" y="435" width="24" height="24" transform="rotate(0,740,447)"/><rect x="728" y="459" width="24" height="24" transform="rotate(0,740,471)"/><rect x="752" y="411" width="24" height="24" transform="rotate(0,764,423)"/><rect x="752" y="435" width="24" height="24" transform="rotate(0,764,447)"/><rect x="752" y="459" width="24" height="24" transform="rotate(0,764,471)"/><rect x="776" y="411" width="24" height="24" transform="rotate(0,788,423)"/><rect x="776" y="435" width="24" height="24" transform="rotate(0,788,447)"/><rect x="776" y="459" width="24" height="24" transform="rotate(0,788,471)"/></clipPath><clipPath id="clip-path-corners-square-color-0-1"><rect x="152" y="891" width="24" height="24" transform="rotate(0,164,903)"/><rect x="152" y="915" width="24" height="24" transform="rotate(0,164,927)"/><rect x="152" y="939" width="24" height="24" transform="rotate(0,164,951)"/><rect x="152" y="963" width="24" height="24" transform="rotate(0,164,975)"/><rect x="152" y="987" width="24" height="24" transform="rotate(0,164,999)"/><rect x="152" y="1011" width="24" height="24" transform="rotate(0,164,1023)"/><rect x="152" y="1035" width="24" height="24" transform="rotate(0,164,1047)"/><rect x="176" y="891" width="24" height="24" transform="rotate(0,188,903)"/><rect x="176" y="1035" width="24" height="24" transform="rotate(0,188,1047)"/><rect x="200" y="891" width="24" height="24" transform="rotate(0,212,903)"/><rect x="200" y="1035" width="24" height="24" transform="rotate(0,212,1047)"/><rect x="224" y="891" width="24" height="24" transform="rotate(0,236,903)"/><rect x="224" y="1035" width="24" height="24" transform="rotate(0,236,1047)"/><rect x="248" y="891" width="24" height="24" transform="rotate(0,260,903)"/><rect x="248" y="1035" width="24" height="24" transform="rotate(0,260,1047)"/><rect x="272" y="891" width="24" height="24" transform="rotate(0,284,903)"/><rect x="272" y="1035" width="24" height="24" transform="rotate(0,284,1047)"/><rect x="296" y="891" width="24" height="24" transform="rotate(0,308,903)"/><rect x="296" y="915" width="24" height="24" transform="rotate(0,308,927)"/><rect x="296" y="939" width="24" height="24" transform="rotate(0,308,951)"/><rect x="296" y="963" width="24" height="24" transform="rotate(0,308,975)"/><rect x="296" y="987" width="24" height="24" transform="rotate(0,308,999)"/><rect x="296" y="1011" width="24" height="24" transform="rotate(0,308,1023)"/><rect x="296" y="1035" width="24" height="24" transform="rotate(0,308,1047)"/></clipPath><clipPath id="clip-path-corners-dot-color-0-1"><rect x="200" y="939" width="24" height="24" transform="rotate(0,212,951)"/><rect x="200" y="963" width="24" height="24" transform="rotate(0,212,975)"/><rect x="200" y="987" width="24" height="24" transform="rotate(0,212,999)"/><rect x="224" y="939" width="24" height="24" transform="rotate(0,236,951)"/><rect x="224" y="963" width="24" height="24" transform="rotate(0,236,975)"/><rect x="224" y="987" width="24" height="24" transform="rotate(0,236,999)"/><rect x="248" y="939" width="24" height="24" transform="rotate(0,260,951)"/><rect x="248" y="963" width="24" height="24" transform="rotate(0,260,975)"/><rect x="248" y="987" width="24" height="24" transform="rotate(0,260,999)"/></clipPath></defs><rect x="0" y="0" height="1600" width="1000" clip-path="url('#clip-path-frame-background-color')" fill="url('#frame-background-color')"/><defs><linearGradient id="bkg-frame-gradient" x1="49.99999999999999%" y1="0%" x2="50%" y2="100%">
			<stop offset="0%" stop-color="#ffffff"/>
			<stop offset="100%" stop-color="#40d0e2"/></linearGradient></defs><path fill="#ffffff" d="M960,0H40A40,40,0,0,0,0,40V1560a40,40,0,0,0,40,40H960a40,40,0,0,0,40-40V40A40,40,0,0,0,960,0ZM482,115h92a12,12,0,0,1,0,24H482a12,12,0,0,1,0-24Zm-48-8a20,20,0,1,1-20,20A20,20,0,0,1,434,107Zm66,1449.5a77.5,77.5,0,1,1,77.5-77.5A77.5,77.5,0,0,1,500,1556.5ZM960,1310a40,40,0,0,1-40,40H80a40,40,0,0,1-40-40V290a40,40,0,0,1,40-40H920a40,40,0,0,1,40,40Z"/><path fill="#ffffff" d="M500,1423a56,56,0,1,0,56,56A56.06,56.06,0,0,0,500,1423Zm0,104a48,48,0,1,1,48-48A48.05,48.05,0,0,1,500,1527Z"/><text x="50%" y="1225" fill="#ffffff" dominant-baseline="middle" text-anchor="middle" font-family="sans-serif" font-size="90" font-weight="600">ศลิษา ผลาจันทร์</text><rect x="112" y="318" height="786" width="776" clip-path="url('#clip-path-background-color')" fill="#ffffff"/><rect x="152" y="363" height="696" width="696" clip-path="url('#clip-path-dot-color')" fill="#000000"/><rect x="152" y="363" height="168" width="168" clip-path="url('#clip-path-corners-square-color-0-0')" fill="#000000"/><rect x="200" y="411" height="72" width="72" clip-path="url('#clip-path-corners-dot-color-0-0')" fill="#000000"/><rect x="680" y="363" height="168" width="168" clip-path="url('#clip-path-corners-square-color-1-0')" fill="#000000"/><rect x="728" y="411" height="72" width="72" clip-path="url('#clip-path-corners-dot-color-1-0')" fill="#000000"/><rect x="152" y="891" height="168" width="168" clip-path="url('#clip-path-corners-square-color-0-1')" fill="#000000"/><rect x="200" y="939" height="72" width="72" clip-path="url('#clip-path-corners-dot-color-0-1')" fill="#000000"/></svg>